<mxfile host="app.diagrams.net" modified="2024-11-27T09:32:38.683Z" agent="Mozilla/5.0 (Windows NT 10.0; Win64; x64) AppleWebKit/537.36 (KHTML, like Gecko) Chrome/131.0.0.0 Safari/537.36 Edg/131.0.0.0" etag="asvq93g5DRK-bzEe19_k" version="24.5.4" type="github">
  <diagram name="第 1 页" id="i_Yt3JVofYldZrW5rh_k">
    <mxGraphModel dx="946" dy="601" grid="1" gridSize="10" guides="1" tooltips="1" connect="1" arrows="1" fold="1" page="1" pageScale="1" pageWidth="827" pageHeight="1169" math="0" shadow="0">
      <root>
        <mxCell id="0" />
        <mxCell id="1" parent="0" />
        <mxCell id="VscqlAjLIQnIuMmFfXEB-2" value="CodeWritter" style="rounded=1;whiteSpace=wrap;html=1;absoluteArcSize=1;arcSize=14;strokeWidth=2;fontFamily=Comic Sans MS;fontStyle=1;fontSize=14;" vertex="1" parent="1">
          <mxGeometry x="298" y="640" width="106" height="60" as="geometry" />
        </mxCell>
        <mxCell id="VscqlAjLIQnIuMmFfXEB-3" value="CodeExecutor" style="rounded=1;whiteSpace=wrap;html=1;absoluteArcSize=1;arcSize=14;strokeWidth=2;fontFamily=Comic Sans MS;fontStyle=1;fontSize=14;" vertex="1" parent="1">
          <mxGeometry x="500" y="500" width="90" height="62.5" as="geometry" />
        </mxCell>
        <mxCell id="VscqlAjLIQnIuMmFfXEB-4" value="Planner" style="rounded=1;whiteSpace=wrap;html=1;absoluteArcSize=1;arcSize=14;strokeWidth=2;fontFamily=Comic Sans MS;fontStyle=1;fontSize=14;" vertex="1" parent="1">
          <mxGeometry x="306" y="350" width="100" height="60" as="geometry" />
        </mxCell>
        <mxCell id="VscqlAjLIQnIuMmFfXEB-5" value="" style="verticalLabelPosition=bottom;verticalAlign=top;html=1;strokeWidth=2;shape=mxgraph.arrows2.arrow;dy=1;dx=32.5;notch=0;rotation=90;fontFamily=Comic Sans MS;fontStyle=1;fontSize=14;" vertex="1" parent="1">
          <mxGeometry x="316" y="290" width="80" height="20" as="geometry" />
        </mxCell>
        <mxCell id="VscqlAjLIQnIuMmFfXEB-14" value="Goal" style="strokeWidth=2;html=1;shape=mxgraph.flowchart.terminator;whiteSpace=wrap;fontFamily=Comic Sans MS;fontStyle=1;fontSize=14;" vertex="1" parent="1">
          <mxGeometry x="316" y="220" width="80" height="40" as="geometry" />
        </mxCell>
        <mxCell id="VscqlAjLIQnIuMmFfXEB-19" value="" style="endArrow=True;dashed=1;html=1;rounded=0;exitX=0.5;exitY=0;exitDx=0;exitDy=0;entryX=0;entryY=1;entryDx=0;entryDy=0;fontFamily=Comic Sans MS;fontStyle=1;fontSize=14;" edge="1" parent="1" source="VscqlAjLIQnIuMmFfXEB-2" target="VscqlAjLIQnIuMmFfXEB-4">
          <mxGeometry width="50" height="50" relative="1" as="geometry">
            <mxPoint x="372.5799999999999" y="661.75" as="sourcePoint" />
            <mxPoint x="260" y="430" as="targetPoint" />
            <Array as="points">
              <mxPoint x="204" y="570" />
              <mxPoint x="204" y="470" />
            </Array>
          </mxGeometry>
        </mxCell>
        <mxCell id="VscqlAjLIQnIuMmFfXEB-24" value="" style="endArrow=classic;html=1;rounded=0;fontFamily=Comic Sans MS;fontStyle=1;fontSize=14;" edge="1" parent="1">
          <mxGeometry width="50" height="50" relative="1" as="geometry">
            <mxPoint x="190" y="490" as="sourcePoint" />
            <mxPoint x="190" y="542.5" as="targetPoint" />
          </mxGeometry>
        </mxCell>
        <mxCell id="VscqlAjLIQnIuMmFfXEB-26" value="" style="endArrow=classic;html=1;rounded=0;fontFamily=Comic Sans MS;fontStyle=1;fontSize=14;" edge="1" parent="1">
          <mxGeometry width="50" height="50" relative="1" as="geometry">
            <mxPoint x="420" y="590" as="sourcePoint" />
            <mxPoint x="470" y="560" as="targetPoint" />
          </mxGeometry>
        </mxCell>
        <mxCell id="VscqlAjLIQnIuMmFfXEB-27" value="code" style="text;html=1;align=center;verticalAlign=middle;resizable=0;points=[];autosize=1;strokeColor=none;fillColor=none;rotation=-30;fontFamily=Comic Sans MS;fontStyle=1;fontSize=14;" vertex="1" parent="1">
          <mxGeometry x="414" y="551.25" width="50" height="30" as="geometry" />
        </mxCell>
        <mxCell id="VscqlAjLIQnIuMmFfXEB-29" value="Actions" style="strokeWidth=2;html=1;shape=mxgraph.flowchart.multi-document;whiteSpace=wrap;fontFamily=Comic Sans MS;fontStyle=1;fontSize=14;" vertex="1" parent="1">
          <mxGeometry x="312" y="420" width="78" height="50" as="geometry" />
        </mxCell>
        <mxCell id="VscqlAjLIQnIuMmFfXEB-30" value="Action" style="strokeWidth=2;html=1;shape=mxgraph.flowchart.terminator;whiteSpace=wrap;fontFamily=Comic Sans MS;fontStyle=1;fontSize=14;" vertex="1" parent="1">
          <mxGeometry x="100" y="500" width="80" height="40" as="geometry" />
        </mxCell>
        <mxCell id="VscqlAjLIQnIuMmFfXEB-32" value="Execution Output" style="text;html=1;align=center;verticalAlign=middle;resizable=0;points=[];autosize=1;strokeColor=none;fillColor=none;fontFamily=Comic Sans MS;fontStyle=1;fontSize=14;" vertex="1" parent="1">
          <mxGeometry x="500" y="460" width="140" height="30" as="geometry" />
        </mxCell>
        <mxCell id="VscqlAjLIQnIuMmFfXEB-33" value="Judge" style="shape=parallelogram;html=1;strokeWidth=2;perimeter=parallelogramPerimeter;whiteSpace=wrap;rounded=1;arcSize=12;size=0.23;fontFamily=Comic Sans MS;fontStyle=1;fontSize=14;" vertex="1" parent="1">
          <mxGeometry x="460" y="420" width="120" height="40" as="geometry" />
        </mxCell>
        <mxCell id="VscqlAjLIQnIuMmFfXEB-34" value="" style="endArrow=none;dashed=1;html=1;rounded=0;entryX=0;entryY=1;entryDx=0;entryDy=0;fontFamily=Comic Sans MS;fontStyle=1;fontSize=14;" edge="1" parent="1" target="VscqlAjLIQnIuMmFfXEB-3">
          <mxGeometry width="50" height="50" relative="1" as="geometry">
            <mxPoint x="364" y="640" as="sourcePoint" />
            <mxPoint x="414" y="590" as="targetPoint" />
          </mxGeometry>
        </mxCell>
        <mxCell id="VscqlAjLIQnIuMmFfXEB-35" value="" style="endArrow=none;dashed=1;html=1;rounded=0;entryX=0.118;entryY=1.013;entryDx=0;entryDy=0;exitX=0.25;exitY=0;exitDx=0;exitDy=0;fontFamily=Comic Sans MS;fontStyle=1;fontSize=14;entryPerimeter=0;" edge="1" parent="1" source="VscqlAjLIQnIuMmFfXEB-3" target="VscqlAjLIQnIuMmFfXEB-33">
          <mxGeometry width="50" height="50" relative="1" as="geometry">
            <mxPoint x="720" y="520" as="sourcePoint" />
            <mxPoint x="770" y="470" as="targetPoint" />
          </mxGeometry>
        </mxCell>
        <mxCell id="VscqlAjLIQnIuMmFfXEB-36" value="" style="endArrow=none;dashed=1;html=1;rounded=0;entryX=0;entryY=0.75;entryDx=0;entryDy=0;exitX=1;exitY=0.75;exitDx=0;exitDy=0;fontFamily=Comic Sans MS;fontStyle=1;fontSize=14;" edge="1" parent="1" source="VscqlAjLIQnIuMmFfXEB-4" target="VscqlAjLIQnIuMmFfXEB-33">
          <mxGeometry width="50" height="50" relative="1" as="geometry">
            <mxPoint x="440" y="370" as="sourcePoint" />
            <mxPoint x="490" y="320" as="targetPoint" />
          </mxGeometry>
        </mxCell>
        <mxCell id="VscqlAjLIQnIuMmFfXEB-37" value="" style="verticalLabelPosition=bottom;verticalAlign=top;html=1;strokeWidth=2;shape=mxgraph.arrows2.arrow;dy=1;dx=32.5;notch=0;rotation=-36;fontFamily=Comic Sans MS;fontStyle=1;fontSize=14;" vertex="1" parent="1">
          <mxGeometry x="520" y="380" width="80" height="20" as="geometry" />
        </mxCell>
        <mxCell id="VscqlAjLIQnIuMmFfXEB-38" value="Finish!" style="rounded=1;whiteSpace=wrap;html=1;fontFamily=Comic Sans MS;fontStyle=1;fontSize=14;" vertex="1" parent="1">
          <mxGeometry x="600" y="330" width="90" height="50" as="geometry" />
        </mxCell>
      </root>
    </mxGraphModel>
  </diagram>
</mxfile>
